<svg width="180" height="180" viewBox="0 0 180 180" fill="none" xmlns="http://www.w3.org/2000/svg">
<path fill-rule="evenodd" clip-rule="evenodd" d="M33.7255 149.62C33.1942 149.62 32.7636 149.189 32.7636 148.658L32.7636 58.6742C32.7636 57.9 33.3911 57.2725 34.1653 57.2725V57.2725C42.4227 57.2725 49.1167 63.9664 49.1167 72.2239L49.1167 134.228C49.1167 142.729 42.2258 149.62 33.7255 149.62V149.62Z" fill="#30E59D"/>
<path d="M76.0504 114.991C67.55 114.991 60.6592 121.882 60.6592 130.383V130.383C60.6592 130.914 61.0899 131.345 61.6211 131.345H79.5134C103.218 131.345 115.07 131.345 124.124 126.731C132.089 122.673 138.564 116.198 142.621 108.234C147.235 99.1803 147.235 87.328 147.235 63.6233V31.4808C147.235 30.8506 146.724 30.3398 146.094 30.3398V30.3398C137.692 30.3398 130.882 37.1506 130.882 45.5521V76.5134C130.882 89.982 130.882 96.7163 128.26 101.861C125.955 106.386 122.276 110.065 117.751 112.37C112.606 114.991 105.872 114.991 92.4035 114.991H76.0504Z" fill="#30E59D"/>
<path fill-rule="evenodd" clip-rule="evenodd" d="M89.9986 103.444C106.202 103.444 119.338 90.3078 119.338 74.1041C119.338 57.9004 106.202 44.7646 89.9986 44.7646C73.7949 44.7646 60.6592 57.9004 60.6592 74.1041C60.6592 90.3078 73.7949 103.444 89.9986 103.444ZM89.0366 87.0908C96.2087 87.0908 102.023 81.2766 102.023 74.1045C102.023 66.9323 96.2087 61.1181 89.0366 61.1181C81.8644 61.1181 76.0502 66.9323 76.0502 74.1045C76.0502 81.2766 81.8644 87.0908 89.0366 87.0908Z" fill="#30E59D"/>
</svg>
