<svg width="445" height="445" viewBox="0 0 445 445" fill="none" xmlns="http://www.w3.org/2000/svg">
<path fill-rule="evenodd" clip-rule="evenodd" d="M83.3782 369.891C82.0648 369.891 81.0001 368.826 81.0001 367.513L81.0001 144.588C81.0001 142.931 82.3432 141.588 84.0001 141.588L89.4287 141.588C107.102 141.588 121.429 155.915 121.429 173.588L121.429 331.84C121.429 352.855 104.393 369.891 83.3782 369.891Z" fill="#30E59D"/>
<path d="M188.017 284.278C167.002 284.278 149.966 301.313 149.966 322.328C149.966 323.642 151.031 324.706 152.344 324.706H196.578C255.181 324.706 284.483 324.706 306.866 313.301C326.555 303.269 342.563 287.262 352.595 267.572C364 245.189 364 215.887 364 157.284V77.8206C364 76.2628 362.737 75 361.18 75C340.409 75 323.572 91.8377 323.572 112.608V189.151C323.572 222.449 323.572 239.097 317.092 251.815C311.391 263.002 302.296 272.097 291.109 277.798C278.391 284.278 261.743 284.278 228.445 284.278H188.017Z" fill="#30E59D"/>
<path fill-rule="evenodd" clip-rule="evenodd" d="M222.501 255.739C262.56 255.739 295.034 223.265 295.034 183.206C295.034 143.146 262.56 110.672 222.501 110.672C182.441 110.672 149.967 143.146 149.967 183.206C149.967 223.265 182.441 255.739 222.501 255.739ZM220.122 215.31C237.853 215.31 252.227 200.937 252.227 183.205C252.227 165.474 237.853 151.1 220.122 151.1C202.391 151.1 188.017 165.474 188.017 183.205C188.017 200.937 202.391 215.31 220.122 215.31Z" fill="#30E59D"/>
</svg>
