<svg width="293" height="204" viewBox="0 0 293 204" fill="none" xmlns="http://www.w3.org/2000/svg">
<path fill-rule="evenodd" clip-rule="evenodd" d="M26.8519 52C12.022 52 0 64.022 0 78.8519V125.148C0 139.978 12.022 152 26.8518 152H223.148C237.978 152 250 139.978 250 125.148V78.8519C250 64.022 237.978 52 223.148 52H26.8519ZM68.9815 72.3704C60.0324 72.3704 52.7778 79.625 52.7778 88.5741V115.426C52.7778 124.375 60.0324 131.63 68.9815 131.63H181.019C189.968 131.63 197.222 124.375 197.222 115.426V88.5741C197.222 79.625 189.968 72.3704 181.019 72.3704H68.9815Z" fill="#30E59D"/>
</svg>
